HIERARCHY
ROOT Hips
{
	OFFSET 0.00000 0.00000 0.00000
	CHANNELS 6 Xposition Yposition Zposition Zrotation Yrotation Xrotation 
	JOINT LHipJoint
	{
		OFFSET 0 0 0
		CHANNELS 3 Zrotation Yrotation Xrotation
		JOINT LeftUpLeg
		{
			OFFSET 1.54859 -1.61379 0.86856
			CHANNELS 3 Zrotation Yrotation Xrotation
			JOINT LeftLeg
			{
				OFFSET 2.25087 -6.18423 0.00000
				CHANNELS 3 Zrotation Yrotation Xrotation
				JOINT LeftFoot
				{
					OFFSET 2.40328 -6.60297 0.00000
					CHANNELS 3 Zrotation Yrotation Xrotation
					JOINT LeftToeBase
					{
						OFFSET 0.17435 -0.47901 2.02453
						CHANNELS 3 Zrotation Yrotation Xrotation
						End Site
						{
							OFFSET 0.00000 -0.00000 1.04844
						}
					}
				}
			}
		}
	}
	JOINT RHipJoint
	{
		OFFSET 0 0 0
		CHANNELS 3 Zrotation Yrotation Xrotation
		JOINT RightUpLeg
		{
			OFFSET -1.54669 -1.61379 0.86856
			CHANNELS 3 Zrotation Yrotation Xrotation
			JOINT RightLeg
			{
				OFFSET -2.28132 -6.26789 0.00000
				CHANNELS 3 Zrotation Yrotation Xrotation
				JOINT RightFoot
				{
					OFFSET -2.51636 -6.91365 0.00000
					CHANNELS 3 Zrotation Yrotation Xrotation
					JOINT RightToeBase
					{
						OFFSET -0.15124 -0.41552 2.21090
						CHANNELS 3 Zrotation Yrotation Xrotation
						End Site
						{
							OFFSET -0.00000 -0.00000 1.13399
						}
					}
				}
			}
		}
	}
	JOINT LowerBack
	{
		OFFSET 0 0 0
		CHANNELS 3 Zrotation Yrotation Xrotation
		JOINT Spine
		{
			OFFSET -0.04287 2.26161 -0.25690
			CHANNELS 3 Zrotation Yrotation Xrotation
			JOINT Spine1
			{
				OFFSET 0.02248 2.28395 -0.10140
				CHANNELS 3 Zrotation Yrotation Xrotation
				JOINT Neck
				{
					OFFSET 0 0 0
					CHANNELS 3 Zrotation Yrotation Xrotation
					JOINT Neck1
					{
						OFFSET -0.11644 1.38496 0.11345
						CHANNELS 3 Zrotation Yrotation Xrotation
						JOINT Head
						{
							OFFSET 0.29383 1.36600 0.06642
							CHANNELS 3 Zrotation Yrotation Xrotation
							End Site
							{
								OFFSET 0.11075 1.41395 -0.00294
							}
						}
					}
				}
				JOINT LeftShoulder
				{
					OFFSET 0 0 0
					CHANNELS 3 Zrotation Yrotation Xrotation
					JOINT LeftArm
					{
						OFFSET 3.51628 0.59542 -0.30346
						CHANNELS 3 Zrotation Yrotation Xrotation
						JOINT LeftForeArm
						{
							OFFSET 4.76405 -0.00000 0.00000
							CHANNELS 3 Zrotation Yrotation Xrotation
							JOINT LeftHand
							{
								OFFSET 3.13759 -0.00000 -0.00000
								CHANNELS 3 Zrotation Yrotation Xrotation
								JOINT LeftFingerBase
								{
									OFFSET 0 0 0
									CHANNELS 3 Zrotation Yrotation Xrotation
									JOINT LeftHandIndex1
									{
										OFFSET 0.73226 -0.00000 -0.00000
										CHANNELS 3 Zrotation Yrotation Xrotation
										End Site
										{
											OFFSET 0.59037 -0.00000 -0.00000
										}
									}
								}
								JOINT LThumb
								{
									OFFSET 0 0 0
									CHANNELS 3 Zrotation Yrotation Xrotation
									End Site
									{
										OFFSET 0.59938 -0.00000 0.59938
									}
								}
							}
						}
					}
				}
				JOINT RightShoulder
				{
					OFFSET 0 0 0
					CHANNELS 3 Zrotation Yrotation Xrotation
					JOINT RightArm
					{
						OFFSET -3.30990 0.84213 -0.36430
						CHANNELS 3 Zrotation Yrotation Xrotation
						JOINT RightForeArm
						{
							OFFSET -5.10161 -0.00000 -0.00000
							CHANNELS 3 Zrotation Yrotation Xrotation
							JOINT RightHand
							{
								OFFSET -3.23267 -0.00000 -0.00000
								CHANNELS 3 Zrotation Yrotation Xrotation
								JOINT RightFingerBase
								{
									OFFSET 0 0 0
									CHANNELS 3 Zrotation Yrotation Xrotation
									JOINT RightHandIndex1
									{
										OFFSET -0.70200 -0.00000 -0.00000
										CHANNELS 3 Zrotation Yrotation Xrotation
										End Site
										{
											OFFSET -0.56597 -0.00000 -0.00000
										}
									}
								}
								JOINT RThumb
								{
									OFFSET 0 0 0
									CHANNELS 3 Zrotation Yrotation Xrotation
									End Site
									{
										OFFSET -0.57461 -0.00000 0.57461
									}
								}
							}
						}
					}
				}
			}
		}
	}
}
MOTION
Frames: 15
Frame Time: .0083333
-33.0377 15.1147 2.0971 0 0 0 0 0 0 -21 0 0 0 0 0 0 0 0 0 0 0 0 0 0 21 0 0 0 0 0 0 0 0 0 0 0 0 0 0 0 0 0 0 0 0 0 0 -16 0 0 21 0 0 11 0 0 0 -8 0 0 0 0 0 0 0 0 0 0 0 0 0 0 0 0 0 0 0 0 8 0 0 0 0 0 0 0 0 0 0 0 0 0 0 0 0 0
-33.0377 15.1147 2.0971 -175.5150 -5.4549 -175.4450 0.0000 0.0000 0.0000 -3.8880 7.4522 -35.2419 6.9894 15.3229 48.8342 0.4127 -10.9979 -12.8828 2.1355 -9.1428 -26.2431 0.0000 0.0000 0.0000 19.1726 -9.0575 -37.6961 -9.6266 -17.1944 58.2328 -1.3765 -2.3560 -23.1240 -0.2045 2.9118 -8.0333 -11.6442 3.0117 25.4177 0.8548 -0.7299 8.1662 7.9113 -1.1950 -4.8939 -18.2252 -12.6358 -8.2351 38.4110 -9.8084 -17.7971 16.0612 -3.2897 0.4149 -0.0000 -0.0000 0.0000 -74.4717 -2.4280 36.4861 26.5827 -37.7783 -9.2423 -0.0000 0.0000 -18.6968 12.5792 14.4242 3.1815 -7.1250 0.0000 -0.0000 -13.7172 44.3008 0.2414 -0.0000 -0.0000 0.0000 94.5106 6.2260 25.8787 -31.8148 42.3990 -12.6157 0.0000 -0.0000 -8.3058 -18.7234 32.7262 -10.3836 7.1250 -0.0000 -0.0000 7.4362 3.9230 7.9933
-32.9842 15.0408 2.1577 -174.8750 -5.6354 -174.6080 0.0000 0.0000 0.0000 -2.8443 7.1283 -37.5630 7.4991 15.7382 50.7377 0.3677 -11.4775 -12.5902 1.9263 -8.7109 -24.8952 0.0000 0.0000 0.0000 19.5743 -8.6399 -39.8971 -10.0879 -17.4590 59.7819 -1.3279 -3.0856 -23.0737 -0.1503 2.4982 -6.8845 -11.4023 3.1847 25.8843 0.8696 -0.5206 8.1564 7.7424 -1.0782 -5.1849 -18.6260 -7.4857 -8.1237 37.7775 -10.1532 -22.2914 16.2841 -8.0380 -1.1133 -0.0000 -0.0000 0.0000 -73.7450 -3.7311 35.0104 26.3536 -37.5557 -9.1023 -0.0000 0.0000 -18.9226 12.8745 14.8119 3.3441 -7.1250 0.0000 -0.0000 -13.5654 44.7182 0.0962 -0.0000 -0.0000 0.0000 94.2188 6.0525 24.9979 -33.7459 43.8956 -13.9366 0.0000 -0.0000 -9.8429 -20.2143 33.4227 -11.4649 7.1250 -0.0000 -0.0000 6.7025 4.9235 7.3014
-32.9257 14.9487 2.2214 -173.8880 -5.8286 -173.9500 0.0000 0.0000 0.0000 -1.5148 7.7473 -40.1294 7.9959 16.1162 52.5478 0.2750 -12.3245 -11.9689 2.1534 -9.1786 -26.3557 0.0000 0.0000 0.0000 20.2451 -8.0552 -41.8026 -10.5453 -17.7053 61.2958 -1.2894 -4.1735 -23.3194 -0.0996 2.0348 -5.6019 -11.0675 3.4275 26.5797 1.1708 -0.2092 8.1559 7.8174 -0.9126 -5.5929 -18.6064 -7.7074 -8.2284 38.1170 -10.4517 -23.4871 16.4709 -8.3907 -1.3004 0.0000 0.0000 0.0000 -73.4082 -5.2273 33.0591 26.0066 -37.2152 -8.8916 -0.0000 0.0000 -18.5994 13.0779 15.3874 3.5272 -7.1250 0.0000 -0.0000 -13.5530 45.3120 -0.1063 0.0000 0.0000 0.0000 93.5615 6.0685 23.9679 -35.5651 45.2114 -15.2130 0.0000 -0.0000 -11.0175 -22.0257 34.1803 -12.8044 7.1250 -0.0000 -0.0000 5.8203 6.0786 6.4357
-32.8614 14.8454 2.2794 -173.1490 -6.1887 -173.6800 0.0000 0.0000 0.0000 -0.5456 8.4192 -42.2613 8.4557 16.4444 54.1880 0.2580 -12.5018 -11.8710 2.9532 -10.6190 -31.0054 0.0000 0.0000 0.0000 20.4654 -7.8107 -43.1903 -10.9634 -17.9171 62.6626 -1.2854 -5.0336 -23.7687 -0.0358 1.2213 -3.3579 -10.9075 3.7293 27.6836 1.4478 0.0348 8.2520 7.9934 -0.8034 -6.0730 -18.8457 -7.4060 -7.6234 38.5777 -10.0318 -25.3551 17.0940 -8.5168 -2.0013 -0.0000 0.0000 0.0000 -73.0345 -6.6565 31.7601 26.3115 -37.5147 -9.0767 -0.0000 0.0000 -20.5158 15.0569 16.6093 4.3972 -7.1250 0.0000 -0.0000 -12.1164 46.7780 -0.5393 -0.0000 0.0000 0.0000 92.8882 6.1908 22.7212 -37.3935 46.4475 -16.5246 0.0000 -0.0000 -11.7694 -24.1713 34.6426 -14.3126 7.1250 -0.0000 -0.0000 4.7274 7.0459 5.2886
-32.8092 14.7320 2.3314 -172.8530 -6.6511 -172.6570 0.0000 0.0000 0.0000 -0.0999 8.1563 -44.8977 8.9029 16.7448 55.7538 0.3253 -11.7099 -12.2319 3.8945 -12.0187 -35.7982 0.0000 0.0000 0.0000 20.0521 -7.6110 -45.4923 -11.3521 -18.1031 63.9198 -1.2491 -5.6565 -23.8476 -0.0021 0.2928 -0.8045 -10.6450 3.7393 27.8699 1.3520 0.0981 8.2243 7.7149 -0.7568 -6.2109 -18.6813 -7.3766 -7.2354 38.8905 -10.0161 -26.7968 17.4240 -8.7936 -2.4699 0.0000 -0.0000 0.0000 -72.3141 -8.1384 30.0398 26.6664 -37.8592 -9.2936 -0.0000 0.0000 -21.6200 14.8518 16.9957 4.4322 -7.1250 0.0000 -0.0000 -12.4258 47.1375 -0.6653 0.0000 -0.0000 0.0000 92.4785 6.3927 21.1850 -39.0905 47.5217 -17.7655 0.0000 -0.0000 -12.3143 -26.1057 35.0984 -15.7353 7.1250 -0.0000 -0.0000 3.7652 7.9939 4.2608
-32.7332 14.6361 2.3659 -172.5930 -6.8117 -172.2990 0.0000 0.0000 0.0000 0.6129 7.9660 -46.3183 9.3061 17.0007 57.1427 0.3764 -11.6032 -12.7354 4.1135 -12.3100 -36.8375 0.0000 0.0000 0.0000 19.4265 -7.3292 -46.6882 -11.6533 -18.2402 64.8855 -1.2016 -6.6148 -24.0750 -0.0050 -0.4544 1.2485 -10.8519 4.1931 28.6486 1.3134 0.4569 8.3251 7.6884 -0.5988 -6.5446 -18.3370 -7.3547 -6.6167 39.0973 -10.0183 -28.3416 17.7192 -9.1051 -3.0411 -0.0000 0.0000 0.0000 -71.5763 -9.7713 28.0837 27.1483 -38.3202 -9.5909 -0.0000 0.0000 -22.4953 13.7480 17.4656 4.1997 -7.1250 0.0000 -0.0000 -13.6002 47.4558 -0.8389 -0.0000 0.0000 0.0000 92.0768 6.6605 19.4303 -40.5643 48.4007 -18.8602 0.0000 -0.0000 -12.9321 -28.1817 35.5403 -17.2986 7.1250 -0.0000 -0.0000 2.7408 9.0028 3.1393
-32.6624 14.5411 2.4044 -172.3000 -7.3370 -171.8780 0.0000 0.0000 0.0000 1.3145 7.8111 -48.0641 9.7179 17.2481 58.5412 0.3602 -12.2395 -12.8366 3.8081 -11.9006 -35.3812 0.0000 0.0000 0.0000 18.8370 -7.3562 -47.9297 -11.9408 -18.3655 65.8010 -1.1116 -8.0053 -24.3191 -0.0119 -0.7038 1.9342 -11.0562 4.4889 29.6429 1.7334 0.5799 8.1258 7.6460 -0.5809 -6.7406 -17.9412 -7.2828 -6.2035 39.0704 -9.9583 -29.7576 17.8959 -9.3438 -3.6037 -0.0000 0.0000 0.0000 -71.1078 -11.4872 25.8169 27.6373 -38.7802 -9.8957 -0.0000 0.0000 -22.7091 12.6475 17.2762 3.8126 -7.1250 0.0000 -0.0000 -14.5513 47.1211 -0.7775 -0.0000 0.0000 0.0000 91.4088 7.0745 17.8043 -41.8652 49.1370 -19.8385 0.0000 -0.0000 -13.7474 -30.4881 35.8177 -19.0114 7.1250 -0.0000 -0.0000 1.5749 9.9526 1.8241
-32.5879 14.4427 2.4403 -172.0950 -7.6572 -171.4280 0.0000 0.0000 0.0000 1.7842 8.4291 -50.0291 10.1408 17.4883 59.9579 0.2692 -12.9459 -12.2147 3.5841 -11.5854 -34.2806 0.0000 0.0000 0.0000 18.0368 -7.2392 -49.0343 -12.2104 -18.4782 66.6542 -1.0529 -8.8105 -24.4531 -0.0402 -1.2949 3.5606 -11.5591 4.8124 30.2500 1.8828 0.7047 8.2736 8.0214 -0.5556 -6.8553 -17.3486 -7.4390 -6.3491 39.0258 -10.2560 -30.8742 17.8346 -9.7343 -3.8813 0.0000 0.0000 0.0000 -70.5777 -13.1207 23.4048 28.3227 -39.4116 -10.3279 -0.0000 0.0000 -21.8184 11.6189 16.8560 3.4120 -7.1250 0.0000 -0.0000 -15.3491 46.5747 -0.6106 0.0000 0.0000 0.0000 90.6619 7.6854 16.1299 -42.9852 49.7423 -20.6894 0.0000 -0.0000 -14.3446 -32.3040 36.2138 -20.4830 7.1250 -0.0000 -0.0000 0.7115 10.9214 0.8335
-32.5152 14.3403 2.4740 -171.9770 -7.7631 -171.0070 0.0000 0.0000 0.0000 2.0786 9.4644 -52.0120 10.5798 17.7232 61.4092 0.1395 -13.6239 -11.1841 3.6049 -11.6152 -34.3838 0.0000 0.0000 0.0000 16.8488 -6.8943 -49.9597 -12.4064 -18.5572 67.2712 -1.0230 -8.8995 -24.2798 -0.1206 -2.2385 6.1654 -11.8742 5.1648 30.7889 1.7358 0.8808 8.4677 7.9565 -0.5179 -6.8892 -16.5753 -7.6916 -6.5818 39.1311 -10.6922 -31.7919 17.7318 -10.2100 -4.0372 -0.0000 -0.0000 0.0000 -69.5696 -14.7988 21.7665 29.6445 -40.5867 -11.1776 -0.0000 0.0000 -22.3797 12.6702 17.6182 3.8927 -7.1250 0.0000 -0.0000 -14.6484 47.4601 -0.9077 -0.0000 -0.0000 0.0000 90.2724 8.3315 14.0664 -44.0640 50.3016 -21.5161 0.0000 -0.0000 -14.7057 -33.5341 36.8727 -21.6862 7.1250 -0.0000 -0.0000 0.2360 12.0023 0.2799
-32.4463 14.2301 2.5062 -171.8570 -7.8335 -170.6120 0.0000 0.0000 0.0000 2.3145 10.5190 -53.9923 11.0297 17.9496 62.8780 0.0313 -14.4991 -10.5362 3.9197 -12.0528 -35.9191 0.0000 0.0000 0.0000 15.4207 -6.4844 -50.6999 -12.5042 -18.5957 67.5782 -0.9915 -8.7704 -23.9178 -0.2510 -3.2238 8.9025 -11.7916 5.4419 31.3435 1.3538 1.0475 8.6672 7.4302 -0.4864 -6.9082 -16.0573 -7.8423 -6.4216 39.6528 -10.9790 -32.8865 18.0055 -10.6862 -4.2936 0.0000 0.0000 0.0000 -68.1362 -16.5670 21.0265 31.3201 -41.9983 -12.2834 -0.0000 0.0000 -24.9220 20.9460 20.4393 7.6138 -7.1250 0.0000 -0.0000 -7.6891 51.5744 -1.2512 0.0000 0.0000 0.0000 90.1622 8.8793 11.8208 -45.1913 50.8619 -22.3871 0.0000 -0.0000 -15.6719 -34.8918 37.5022 -23.0045 7.1250 -0.0000 -0.0000 -0.2967 13.1133 -0.3563
-32.3759 14.1263 2.5207 -171.9330 -8.6806 -170.5800 0.0000 0.0000 0.0000 2.4163 10.8340 -55.5135 11.4516 18.1491 64.2396 -0.0466 -15.5079 -10.3846 4.5021 -12.8001 -38.6247 0.0000 0.0000 0.0000 13.7714 -6.9557 -50.7232 -12.4989 -18.5937 67.5616 -1.0026 -8.5217 -23.8157 -0.4317 -4.2163 11.6859 -11.6057 5.5576 32.4281 1.1734 0.9501 8.9267 7.1529 -0.5950 -7.0203 -15.6681 -7.9705 -6.0957 39.9857 -11.2026 -34.0520 18.2803 -11.0968 -4.6444 0.0000 0.0000 0.0000 -66.6993 -18.4021 20.2376 33.0223 -43.3471 -13.4373 -0.0000 0.0000 -26.3920 25.2424 21.4860 9.7976 -7.1250 0.0000 -0.0000 -3.6552 53.4610 -0.7614 0.0000 0.0000 0.0000 89.7102 9.3659 9.5177 -46.2717 51.3765 -23.2281 0.0000 -0.0000 -17.1306 -36.7963 37.6506 -24.5560 7.1250 -0.0000 -0.0000 -1.2275 13.9453 -1.4875
-32.3072 14.0147 2.5376 -171.8650 -9.1077 -170.4420 0.0000 0.0000 0.0000 2.6928 11.3608 -57.0632 11.8959 18.3463 65.6586 -0.1335 -16.4328 -10.1418 4.7617 -13.1103 -39.7827 0.0000 0.0000 0.0000 12.1235 -7.0667 -50.7514 -12.4413 -18.5710 67.3810 -1.0119 -8.1276 -23.5902 -0.6420 -5.1260 14.2683 -11.5963 5.8738 33.2918 1.1740 1.1045 9.1178 7.0477 -0.5868 -7.0447 -15.4059 -8.1523 -5.8068 40.1746 -11.4774 -35.1913 18.5000 -11.4821 -4.9780 -0.0000 -0.0000 0.0000 -65.2426 -20.4224 19.2853 34.6991 -44.5961 -14.6017 -0.0000 0.0000 -26.6282 24.5176 21.5423 9.5073 -7.1250 0.0000 -0.0000 -4.4208 53.3814 -0.9127 -0.0000 -0.0000 0.0000 88.8521 9.7644 7.2508 -47.3350 51.8624 -24.0616 0.0000 -0.0000 -18.6854 -39.0660 37.9214 -26.5123 7.1250 -0.0000 -0.0000 -2.2957 15.0868 -2.8160
-32.2244 13.9046 2.5522 -171.6810 -9.1642 -170.2460 0.0000 0.0000 0.0000 3.2749 12.1502 -58.4743 12.3261 18.5251 67.0189 -0.2889 -17.5704 -9.4025 4.5162 -12.8173 -38.6884 0.0000 0.0000 0.0000 10.5876 -6.8012 -50.7129 -12.3363 -18.5292 67.0509 -0.9797 -8.1280 -23.3190 -0.7955 -5.6930 15.8962 -11.7693 6.3318 33.7376 1.1571 1.4450 9.4151 6.9811 -0.4974 -6.9466 -15.0149 -8.3063 -5.4183 40.2911 -11.7134 -36.2788 18.6881 -11.8500 -5.3569 -0.0000 0.0000 0.0000 -63.4771 -22.5959 18.5830 36.2864 -45.7092 -15.7272 -0.0000 0.0000 -27.0772 23.5915 21.0046 8.8967 -7.1250 0.0000 -0.0000 -5.2077 52.6381 -0.9810 -0.0000 0.0000 0.0000 87.9417 10.0120 5.1643 -48.2977 52.2854 -24.8210 0.0000 -0.0000 -20.0053 -42.1715 38.3117 -29.3170 7.1250 -0.0000 -0.0000 -3.7228 16.7663 -4.6465
-32.1279 13.7835 2.5580 -171.6510 -8.8933 -169.4800 0.0000 0.0000 0.0000 3.4310 13.7903 -60.6941 12.7430 18.6874 68.3253 -0.5254 -19.1049 -8.2710 4.4952 -12.7917 -38.5935 0.0000 0.0000 0.0000 8.9019 -6.0027 -51.2293 -12.2216 -18.4828 66.6896 -0.9027 -8.5643 -23.0002 -0.9096 -6.0774 17.0091 -12.3220 6.8127 33.2296 1.0127 1.8844 9.6941 6.9517 -0.3467 -6.5284 -14.6453 -8.4774 -4.8947 40.4097 -11.9571 -37.3493 18.9094 -12.2156 -5.7578 -0.0000 -0.0000 0.0000 -61.3351 -24.8780 18.2126 38.0556 -46.8748 -17.0061 -0.0000 0.0000 -28.1039 24.6630 21.5170 9.5596 -7.1250 0.0000 -0.0000 -4.2632 53.3824 -0.8802 -0.0000 -0.0000 0.0000 87.0807 10.1197 3.4927 -48.9651 52.5695 -25.3500 0.0000 -0.0000 -19.7606 -47.6197 36.3791 -33.0240 7.1250 -0.0000 -0.0000 -7.0823 17.2535 -8.9201
